<?xml version="1.0" encoding="utf-8"?>
<!-- Generator: Adobe Illustrator 27.5.0, SVG Export Plug-In . SVG Version: 6.00 Build 0)  -->
<svg version="1.1" xmlns="http://www.w3.org/2000/svg" xmlns:xlink="http://www.w3.org/1999/xlink" x="0px" y="0px"
	 viewBox="0 0 1122 800" style="enable-background:new 0 0 1122 800;" xml:space="preserve">
<g id="Background">
	<rect style="fill:#FFFFFF;" width="1122" height="800"/>
</g>
<g id="shadow">
	<path style="opacity:0.1;fill:#516784;" d="M1059.572,648.813H197.014c-27.283,0-49.606,8.938-49.606,19.864l0,0
		c0,7.565,10.707,14.175,26.35,17.526H97.803c-27.283,0-49.606,8.939-49.606,19.863l0,0c0,10.925,22.323,19.864,49.606,19.864
		h26.466c-7.392,3.471-11.876,7.961-11.876,12.853v7.945c0,10.925,22.323,19.863,49.606,19.863h849.719
		c27.283,0,49.606-8.939,49.606-19.863v-7.945c0-10.925-22.323-19.863-49.606-19.863l-57.776,0.441
		c4.401,0,11.547-1.39,16.341-4.185c8.406-4.9,8.779-12.359,4.669-18.534c-2.664-4.003-6.933-7.176-17.508-8.37l102.13,0.268
		c27.283,0,49.606-8.939,49.606-19.863l0,0C1109.178,657.752,1086.855,648.813,1059.572,648.813z"/>
</g>
<g id="object">
	<g>
		<g>
			<g>
				<g>
					<polygon style="fill:#EBCEB1;" points="333.203,275.904 331.096,285.646 346.786,291 354.197,283.697 352.196,274.967 
						344.601,277.128 344.996,275.302 347.247,273.882 345.786,271.648 					"/>
				</g>
				<g>
					<g>
						<polygon style="fill:#9299A2;" points="233.331,202.54 277.505,255.255 336.764,272.664 334.211,287.688 260.499,278.957 
							190.073,213.285 						"/>
					</g>
				</g>
			</g>
		</g>
	</g>
	<g>
		<path style="fill:#998675;" d="M164.051,692.867l-0.781,9.058l-5.979,7.366c0,0-1.716,11.051,1.552,12.992
			c3.268,1.941,54.283,7.997,54.283,7.997l5.257-7.843l-4.216-8.659l-26.964-12.334l-9.262-10.284L164.051,692.867z"/>
		<path style="fill:#998675;" d="M217.383,673.3l-0.781,9.058l-5.893,7.373c0,0-1.704,11.052,1.509,12.989
			c3.213,1.936,53.398,7.921,53.398,7.921l5.183-7.849l-4.136-8.652l-26.513-12.295l-9.098-10.27L217.383,673.3z"/>
		<g>
			<path style="fill:#667482;" d="M156.001,515.221c4.38,9.216,8.324,17.576,9.038,29.446c0.702,11.674-1.482,23.3-3.136,34.878
				c-5.725,40.067-5.163,80.733-4.59,121.203c13.96,0.607,27.934,0.897,41.907,0.869c2.376-0.005,5.054-0.147,6.635-1.921
				c1.585-1.778,1.416-4.461,1.152-6.828c-3.205-28.754-2.982-57.844-2.549-86.731c0.213-14.228,0.704-26.393,3.62-40.124
				c2.897-13.641,2.38-27.773,1.445-41.598c-2.291-33.858-9.151-67.089-11.04-100.933c-0.343-6.138-0.924-12.737-4.896-17.428
				c-4.776-5.641-12.964-6.792-20.355-6.788c-20.319,0.01-43.249,3.215-44.271,27.856c-0.341,8.215,1.824,16.309,4.123,24.203
				c5.266,18.085,10.991,36.348,18.285,53.733C152.886,508.674,154.47,512,156.001,515.221z"/>
			<path style="fill:#667482;" d="M212.653,499.661c4.176,9.421,7.934,17.965,8.079,29.856c0.143,11.695-2.775,23.198-5.129,34.68
				c-8.146,39.735-9.646,80.38-11.123,120.828c14.794,1.296,29.618,2.275,44.459,2.937c2.524,0.113,5.374,0.102,7.145-1.591
				c1.775-1.697,1.734-4.385,1.576-6.762c-2.39-35.932-5.083-71.976-2.554-107.895c0.968-13.747,2.699-27.441,3.474-41.199
				c1.508-26.792-0.646-53.615-3.912-80.229c-2.011-16.391,0.838-51.483-15.747-61.406c-7.508-4.492-17.002-5.156-25.779-3.812
				c-4.477,0.686-8.946,1.889-12.731,4.238c-7.293,4.527-11.146,12.838-11.932,21.026c-0.785,8.188,1.096,16.38,3.13,24.378
				c4.66,18.323,9.798,36.846,16.648,54.57C209.683,492.968,211.194,496.368,212.653,499.661z"/>
			<path style="fill:#9299A2;" d="M139.889,191.246c-10.695,6.34-18.773,16.017-21.575,30.379
				c-12.654,64.859-4.84,131.754,3.013,197.368c0.536,4.477,1.362,9.474,5.001,12.136c4.119,3.013,9.847,1.646,14.743,0.205
				c38.514-11.334,77.977-19.444,117.84-24.217c-2.409-48.247-7.086-96.38-14.01-144.188c-1.872-12.923-3.942-25.95-8.769-38.084
				c-10.778-27.088-29.074-46.395-59.744-43.886C163.376,182.024,150.374,185.031,139.889,191.246z"/>
			<g>
				<path style="fill:#FEE4D6;" d="M207.044,127.631c0.521,8.26,0.922,17.07-3.208,24.243c-3.518,6.111-9.781,10.048-14.592,15.204
					c-2.931,3.14-5.368,7.227-5.916,11.55c-0.541,4.267,1.752,7.907,1.725,12.177c-0.002,0.4-0.02,0.816-0.207,1.168
					c-0.201,0.377-0.571,0.633-0.947,0.836c-1.929,1.047-4.227,1.085-6.422,1.098c-2.593,0.015-5.425,0.362-7.996,0.047
					c-3.361-0.412-2.678-1.09-2.994-4.515c-0.473-5.107-1.164-10.234-2.812-15.111c-3.4-10.064-10.639-18.663-12.69-29.211
					c-2.27-11.671,1.123-23.109,4.823-34.206c1.656-4.965,3.474-10.025,6.877-14.001c7.478-8.737,25.015-11.527,33.395-2.601
					C206.038,104.918,206.16,113.614,207.044,127.631z"/>
				<path style="fill:#8C6239;" d="M204.393,121.968c5.431,7.443,6.313,17.948,2.201,26.193c6.31-4.404,9.279-12.248,10.551-19.837
					c0.699-4.174,0.994-8.439,0.515-12.644c-1.513-13.277-12.038-25.547-25.285-27.31c-8.761-1.166-8.727,10.005-5.313,15.439
					C191.555,110.958,199.455,115.199,204.393,121.968z"/>
				<path style="fill:#8C6239;" d="M181.19,81.429c-4.909-2.349-10.58-2.485-16.002-2.021c-7.429,0.635-22.377,2.829-31.204,8.364
					c-4.978-10.644-19.345-18.689-29.829-13.168c-6.139,3.234-8.796,10.262-5.962,15.771c0.708,1.376,1.718,2.656,3.034,3.691
					c1.102,0.867,2.416,1.564,3.357,2.55c3.568,3.737,0.267,9.041-2.359,13.269c-2.965,4.773-4.998,9.934-6,15.226
					c-0.565,2.986-0.783,6.135,0.585,8.941c1.368,2.806,4.691,5.159,8.374,5c6.669-0.288,8.013-5.969,8.358-11.132
					c0.398-5.945,1.399-11.161,4.095-16.7c0.988-2.029,2.338-4.167,4.519-4.748c0.417-0.111,0.836-0.153,1.257-0.152
					c-1.466,4.966-2.26,9.998-1.489,15.525c1.537,11.016,5.611,21.758,12.356,30.602c6.744,8.844,16.221,15.71,26.937,18.689
					c0.758-6.779-6.392-11.913-7.693-18.609c-0.704-3.625,0.412-7.414,2.308-10.582c1.897-3.168,4.529-5.819,7.135-8.436
					c4.492-4.511,8.983-9.022,13.475-13.532c3.664-3.68,7.363-7.403,10.102-11.816C192.114,99.184,191.854,86.534,181.19,81.429z"/>
			</g>
		</g>
	</g>
	<g>
		<g id="XMLID_206_">
			<polygon style="fill:#41352B;" points="591.873,725.763 591.873,735.451 567.028,747.874 554.606,735.451 567.028,723.029 
				568.631,723.029 569.03,725.763 			"/>
		</g>
		<g id="XMLID_205_">
			<polygon style="fill:#41352B;" points="653.059,723.029 654.774,723.029 667.196,735.451 654.774,747.874 629.929,735.451 
				629.929,725.763 652.772,725.763 			"/>
		</g>
		<g>
			<g id="XMLID_204_">
				<path style="fill:#667482;" d="M652.708,358.079c-3.27-16.548-5.826-31.82-6.06-40.103
					c-0.704-24.911-3.839-107.187-3.839-107.187l-15.205-31.47l-2.807,0.027c0.202-0.024,0.404-0.049,0.606-0.073
					c-0.661,0.079,0.318-6.082,0.553-6.626c13.221-0.451,30.258,7.007,38.596,17.396c6.17,7.688,9.838,17.086,13.412,26.32
					c10.065,25.998,14.629,50.085,19.649,77.423c3.201,17.432,6.159,34.782,8.487,52.087c2.579,19.165,4.397,38.274,4.923,57.271
					c0.058,2.1,0.474,7.973,0.708,14.989c0.489,14.696,0.175,34.354-5.909,35.088c-1.139,0.138-2.238-0.375-3.24-0.87
					c-7.827-3.867-13.994-8.916-20.896-13.328l-0.371-76.661L652.708,358.079z"/>
			</g>
			<g id="XMLID_203_">
				<path style="fill:#667482;" d="M512.862,436.868c1.556-16.314,3.172-32.624,5.146-48.891
					c3.936-32.447,9.294-64.817,18.36-96.228c3.463-11.999,7.459-23.832,11.453-35.66c4.864-14.404,9.727-28.807,14.591-43.21
					c6.045-17.902,16.246-30.512,34.11-36.774c3.191-1.118,6.548-1.981,10.009-2.613c0.085,0.37,0.161,0.745,0.209,1.14
					c0.207,1.719,0.69,3.626,1.76,4.873l-11.724,0.114c0,0-33.079,117.563-34.295,137.825c-0.462,7.702-1.999,24.516-3.709,42.229
					l-17.963,2.69l-0.77,67.751c-1.006,0.294-2.006,0.578-2.999,0.846c-5.7,1.538-10.336,5.762-15.071,9.076
					C514.974,444.927,511.908,446.865,512.862,436.868z"/>
			</g>
			<g id="XMLID_202_">
				<path style="fill:#667482;" d="M558.772,359.672c-2.706,28.031-5.845,58.316-5.845,58.316s14.523,0.349,35.532,1.942
					c-1.554-0.037-3.109-0.078-4.661-0.092c-14.613-0.131-29.769,6.182-43.76,10.275l0.77-67.751L558.772,359.672z"/>
			</g>
			<g id="XMLID_201_">
				<path style="fill:#667482;" d="M656.827,428.456c10.018,0.531,11.263-1.356,11.263-1.356s-9.037-36.913-15.382-69.021
					l28.607,4.283l0.371,76.661c-2.427-1.551-4.943-3.025-7.656-4.339C668.592,432.052,662.784,430.045,656.827,428.456z"/>
			</g>
			<g>
				<path style="fill:#545150;" d="M540.038,430.113c13.991-4.093,29.147-10.406,43.76-10.275c1.552,0.014,3.106,0.055,4.66,0.092
					c1.3,0.099,2.625,0.202,3.973,0.311c9.792,0.788,20.794,1.839,32.28,3.234c0.564,0.069,1.126,0.135,1.692,0.205
					c14.691,3.197,24.23,4.448,30.423,4.776c5.957,1.589,11.765,3.596,17.202,6.228c2.714,1.314,5.229,2.788,7.656,4.339
					l0.077,15.964L653.753,726.13h-22.965v2.761h-0.132l-25.251-181.872l-0.105-1.024l-13.834,182.896h-0.131v-2.761h-23.077
					l-29.27-203.666L540.038,430.113z"/>
			</g>
			<g>
				<path style="fill:#FFFFFF;" d="M552.926,417.988c0,0,14.523,0.349,35.532,1.942c1.3,0.099,2.625,0.202,3.973,0.311
					c9.792,0.788,20.794,1.839,32.28,3.234c0.564,0.069,1.125,0.135,1.692,0.206c14.692,3.197,24.23,4.448,30.424,4.776
					c10.018,0.531,11.263-1.356,11.263-1.356s-9.037-36.913-15.382-69.021c-3.27-16.548-5.826-31.82-6.06-40.103
					c-0.704-24.911-3.839-107.187-3.839-107.187l-15.205-31.47l-2.807,0.027c-3.876,0.466-7.752,0.933-11.628,1.399
					c-1.002,0.121-2.041,0.237-2.999-0.083c-0.482-0.161-0.899-0.413-1.261-0.733c-0.147-0.129-0.28-0.275-0.408-0.425
					l-11.724,0.114c0,0-33.079,117.563-34.295,137.825c-0.462,7.702-1.999,24.516-3.709,42.229
					C556.066,387.704,552.926,417.988,552.926,417.988z"/>
			</g>
		</g>
	</g>
	<g>
		<g>
			<path style="fill:#534741;" d="M587.247,104.377c-2.943,5.934-4.165,12.656-4.117,19.301c0.013,1.767-0.003,3.809-1.351,4.923
				c-1.444,1.193-0.001,3.568-1.218,2.138c-1.217-1.431-5.355-6.405-5.624-8.277c-0.632-4.385-0.85-8.832-0.653-13.259
				c0.172-3.85,0.739-7.894,3.056-10.944c1.374-1.809,3.263-3.128,5.125-4.409c2.699-1.858,5.483-3.734,8.652-4.508
				c5.462-1.334,8.947,0.501,4.278,4.667C592.05,96.992,589.263,100.312,587.247,104.377z"/>
		</g>
		<g>
			<g>
				<path style="fill:#EACDB0;" d="M625.329,177.831c-7.551,1.119-15.102,2.237-22.653,3.356c-1.492-6.604-2.512-13.34-3.047-20.12
					c-6.667-0.807-14.549-2.573-17.164-9.494c-0.824-2.18-0.971-4.59-1.107-6.949c-0.564-9.749-1.128-19.498-1.692-29.247
					c-0.195-3.372-0.379-6.847,0.598-10.037c1.715-5.597,6.613-9.136,11.475-11.456c12.407-5.921,27.189-6.485,39.265,0.38
					c3.214,1.827,6.281,4.232,8.25,7.613c3.036,5.213,3.023,11.845,2.907,18.05c-0.107,5.727-0.215,11.454-0.322,17.181
					c-0.123,6.587-0.71,14.192-5.546,17.921c-2.568,1.98-5.989,2.497-8.162,4.999C624.299,164.44,626.525,171.816,625.329,177.831z"
					/>
			</g>
		</g>
		<g>
			<path style="fill:#534741;" d="M579.925,150.391c1.491,6.009,4.672,11.655,9.703,14.81c5.703,3.576,12.628,3.49,19.173,3.305
				c3.58-0.101,7.161-0.203,10.741-0.304c9.058-0.257,17.999-1.917,22.164-11.851c1.921-4.581,2.34-9.811,1.768-14.832
				c-0.157-1.379-0.402-2.794-1.106-3.954c-0.704-1.16-1.972-2.011-3.218-1.767c-1.592,0.312-2.466,2.119-3.43,3.538
				c-2.102,3.095-5.999,4.965-9.294,3.541c-0.977-0.422-1.837-1.091-2.693-1.767c-0.351-0.277-0.701-0.555-1.058-0.818
				c-3.542-2.606-7.771-3.666-11.961-4c-3.636-0.29-9.021-1.364-11.542,1.904c-1.467,1.901-2.934,3.802-4.401,5.704
				c-0.604,0.783-1.224,1.581-2.029,2.104c-0.829,0.539-1.806,0.753-2.771,0.821c-2.427,0.171-5.212-0.826-6.164-3.289
				c-0.415-1.073-0.423-2.269-0.525-3.427c-0.102-1.157-0.337-2.379-1.08-3.214c-2.843-3.191-3.351,2.149-3.367,3.963
				C578.807,144.064,579.155,147.289,579.925,150.391z M604.656,150.78c2.966,1.81,5.969,1.678,9.099,0.538
				c1.608-0.586,2.441,2.162,0.836,2.747c-3.778,1.376-7.579,1.448-11.141-0.726C601.966,152.433,603.164,149.869,604.656,150.78z"
				/>
		</g>
		<g>
			<path style="fill:#534741;" d="M574.793,88.083c-0.751-2.33-1.34-4.715-1.76-7.13c2.252,0.674,4.673,0.757,6.965,0.241
				c-0.066-1.403-0.131-2.805-0.197-4.208c-0.049-1.167,15.426-2.796,16.681-2.968c11.753-1.603,22.499-3.105,33.498,2.778
				c9.395,5.025,15.656,12.936,17.597,23.559c1.854,10.148-0.759,23.666-6.14,32.451c-0.104-2.722,1.11-9.22,0.348-11.772
				c-0.518-2.571-1.524-5.023-2.855-7.265c-2.658-4.478-6.611-8.157-11.09-10.695c-7.141-4.047-15.302-5.957-23.393-6.674
				c-7.413-0.657-16.43-1.149-23.601,1.214c-3.447,1.136-3.981,2.058-6.28-1.419c-0.405-0.613-3.738-7.844-3.449-7.864
				C572.343,88.249,573.568,88.166,574.793,88.083z"/>
		</g>
	</g>
	<g>
		<g>
			
				<ellipse transform="matrix(0.7071 -0.7071 0.7071 0.7071 -216.178 550.7266)" style="fill:#4498C5;" cx="556.697" cy="536.313" rx="220.5" ry="220.5"/>
		</g>
		<path style="fill:#95B84C;" d="M609.282,322.14c3.932,0.962,7.823,2.025,11.669,3.195L609.282,322.14z"/>
		<g>
			<path style="fill:#A2C24B;" d="M615.664,341.051c0.946,0.29,1.887,0.588,2.826,0.891c0.281-0.204,0.561-0.408,0.842-0.612
				C618.014,341.33,616.813,341.216,615.664,341.051z"/>
			<path style="fill:#A2C24B;" d="M604.853,351.852c6.778,0,16.929,11.257,22.14,7.764c7.169-4.806,5.399-9.301,7.341-11.831
				c-5.177-2.158-10.461-4.108-15.843-5.842C613.945,345.245,609.399,348.549,604.853,351.852z"/>
			<path style="fill:#A2C24B;" d="M615.664,341.051c-2.143-0.656-4.3-1.278-6.471-1.865
				C611.107,340.033,613.221,340.7,615.664,341.051z"/>
			<path style="opacity:0.07;fill:#FFFFFF;" d="M733.167,434.781c-10.033-17.419-22.563-33.216-37.09-46.917
				c-0.195-0.184-0.396-0.361-0.592-0.543c-1.464-1.371-2.945-2.724-4.449-4.052c-0.216-0.19-0.437-0.373-0.653-0.562
				c-1.506-1.318-3.028-2.618-4.573-3.892c-0.179-0.148-0.363-0.29-0.542-0.437c-1.601-1.311-3.219-2.6-4.859-3.863
				c-0.12-0.092-0.242-0.182-0.363-0.274c-1.713-1.313-3.446-2.599-5.201-3.858c-0.058-0.041-0.116-0.081-0.173-0.123
				c-1.823-1.305-3.668-2.58-5.535-3.826c-0.004-0.003-0.009-0.006-0.013-0.009c-3.818-2.547-7.726-4.967-11.719-7.259
				c-0.001,0-0.001-0.001-0.002-0.001v0c-21.56-12.377-45.583-20.937-71.159-24.771l0,0c-0.001,0-0.002,0-0.003-0.001
				c-1.485-0.222-2.972-0.433-4.468-0.624c-0.839-0.11-1.684-0.203-2.526-0.302c-0.971-0.111-1.937-0.236-2.912-0.334
				c-0.002,0-0.003,0-0.005-0.001c0,0,0,0,0,0c-4.101-0.411-8.24-0.692-12.409-0.857v0c-0.001,0-0.001,0-0.003,0
				c-0.9-0.036-1.804-0.062-2.708-0.086c-1.848-0.054-3.701-0.095-5.562-0.095c-1.607,0-3.21,0.023-4.809,0.061
				c-0.598,0.014-1.194,0.037-1.792,0.056c-0.971,0.031-1.94,0.066-2.907,0.11c-0.768,0.035-1.534,0.076-2.3,0.12
				c-0.742,0.043-1.484,0.09-2.224,0.141c-0.912,0.062-1.822,0.125-2.73,0.199c-0.417,0.034-0.832,0.074-1.249,0.111
				c-5.29,0.461-10.521,1.123-15.688,1.979c-0.001,0-0.002,0-0.003,0l0,0c-1.374,0.228-2.743,0.467-4.107,0.721l-0.001,0
				c-0.004,0.001-0.008,0.002-0.013,0.003c-1.762,0.329-3.515,0.682-5.26,1.056c-0.067,0.014-0.134,0.029-0.201,0.043
				c-1.691,0.364-3.375,0.749-5.05,1.155c-0.093,0.022-0.186,0.045-0.279,0.068c-1.658,0.404-3.307,0.828-4.949,1.271
				c-0.093,0.025-0.187,0.05-0.28,0.076c-1.655,0.45-3.302,0.92-4.941,1.411c-0.066,0.02-0.132,0.039-0.199,0.059
				c-1.689,0.507-3.369,1.035-5.039,1.584c-0.007,0.002-0.013,0.004-0.021,0.007c-18.714,6.159-36.233,14.941-52.127,25.915
				c-0.001,0.001-0.003,0.002-0.004,0.003l0,0c-53.49,36.933-88.55,98.653-88.55,168.573c0,46.977,15.833,90.249,42.44,124.796
				c-17.303-30.038-27.202-64.88-27.202-102.035c0-61.802,27.387-117.208,70.685-154.745c0.321-0.278,0.649-0.548,0.973-0.825
				c0.865-0.74,1.731-1.479,2.608-2.206c0.496-0.411,1.002-0.813,1.502-1.219c0.715-0.581,1.429-1.163,2.152-1.733
				c0.545-0.43,1.096-0.852,1.646-1.277c0.692-0.535,1.384-1.07,2.083-1.597c0.568-0.428,1.142-0.85,1.715-1.273
				c0.69-0.509,1.383-1.017,2.08-1.517c0.587-0.421,1.176-0.838,1.767-1.253c0.698-0.49,1.398-0.976,2.103-1.457
				c0.596-0.408,1.193-0.812,1.793-1.214c0.715-0.477,1.434-0.949,2.154-1.418c0.599-0.39,1.198-0.779,1.801-1.162
				c0.739-0.47,1.484-0.931,2.23-1.392c0.593-0.367,1.186-0.736,1.783-1.096c0.788-0.476,1.584-0.941,2.379-1.406
				c0.563-0.329,1.123-0.664,1.689-0.988c0.92-0.527,1.849-1.04,2.779-1.553c0.45-0.249,0.896-0.504,1.349-0.75
				c1.37-0.743,2.749-1.471,4.138-2.183c0.42-0.215,0.845-0.42,1.266-0.633c0.991-0.499,1.982-0.998,2.982-1.482
				c0.567-0.274,1.139-0.538,1.707-0.806c0.863-0.408,1.727-0.816,2.596-1.212c0.618-0.282,1.242-0.555,1.864-0.83
				c0.831-0.368,1.663-0.736,2.5-1.094c0.644-0.275,1.292-0.544,1.938-0.813c0.825-0.342,1.651-0.681,2.481-1.013
				c0.659-0.263,1.319-0.522,1.981-0.779c0.833-0.323,1.67-0.641,2.508-0.953c0.66-0.246,1.321-0.49,1.985-0.73
				c0.853-0.308,1.711-0.608,2.569-0.905c0.657-0.227,1.313-0.455,1.973-0.676c0.887-0.296,1.777-0.582,2.669-0.867
				c0.637-0.203,1.272-0.41,1.911-0.607c0.965-0.297,1.935-0.581,2.906-0.864c0.572-0.167,1.141-0.341,1.715-0.503
				c1.241-0.351,2.49-0.684,3.74-1.012c0.309-0.081,0.616-0.169,0.926-0.249c1.558-0.4,3.124-0.782,4.696-1.146
				c0.481-0.111,0.967-0.212,1.448-0.32c1.102-0.247,2.203-0.492,3.311-0.721c0.614-0.127,1.231-0.242,1.846-0.364
				c0.983-0.194,1.965-0.387,2.953-0.566c0.669-0.121,1.34-0.234,2.01-0.349c0.942-0.161,1.885-0.321,2.832-0.469
				c0.695-0.109,1.391-0.211,2.089-0.314c0.933-0.137,1.867-0.268,2.804-0.392c0.705-0.093,1.411-0.182,2.118-0.269
				c0.943-0.115,1.887-0.222,2.833-0.324c0.702-0.076,1.404-0.15,2.107-0.219c0.966-0.094,1.934-0.177,2.903-0.258
				c0.69-0.057,1.379-0.116,2.071-0.167c1.008-0.073,2.02-0.133,3.032-0.192c0.655-0.038,1.309-0.081,1.966-0.113
				c1.117-0.054,2.24-0.091,3.362-0.128c0.555-0.018,1.108-0.044,1.665-0.057c1.679-0.041,3.362-0.064,5.05-0.064
				c0.43,0,0.857,0.016,1.286,0.019l0,0c30.461,0.188,59.345,7.017,85.268,19.132c0.261,0.122,0.518,0.251,0.778,0.374
				c1.311,0.62,2.616,1.253,3.912,1.9c0.561,0.28,1.117,0.566,1.675,0.85c1.021,0.521,2.038,1.051,3.05,1.589
				c0.565,0.301,1.131,0.6,1.693,0.906c1.204,0.656,2.401,1.324,3.591,2.003c0.463,0.264,0.927,0.527,1.388,0.795
				c1.272,0.739,2.536,1.492,3.791,2.257c0.587,0.358,1.17,0.725,1.754,1.089c0.89,0.555,1.775,1.116,2.655,1.684
				c0.606,0.391,1.213,0.783,1.815,1.181c0.959,0.634,1.91,1.279,2.858,1.928c0.47,0.322,0.945,0.637,1.411,0.962l0.001,0
				C705.052,403.547,720.359,418.151,733.167,434.781z"/>
		</g>
		<g>
			<path style="fill:#C4D8A1;" d="M554.82,336.377c-0.106,0-0.194,0.002-0.303,0.002
				C554.637,336.379,554.736,336.378,554.82,336.377z"/>
			<g>
				<path style="fill:#C4D8A1;" d="M634.184,329.828c-5.847-0.77-11.962-0.799-18.726,0.275c2.742-1.924,4.5-3.499,5.493-4.768
					c-3.846-1.17-7.737-2.233-11.669-3.195c-0.286,0.089-0.567,0.181-0.843,0.278c-5.328,1.867-6.11,2.061-5.236,5.427
					c-2.071-0.834-4.052-1.797-5.873-2.917h-25.528c16.171,17.885-15.176,16.706-26.625,16.74c-2.094,0.006-2.582-4.188-1.389-5.289
					c0.551-0.509,13.469-0.034,11.032-0.002c10.42-0.015,9.113-0.838,9.113-11.448c-10.36,7.639-9.999,0-21.751,0
					c-11.021,0-16.427,0.607-26.094,4.952c3.148,2.682,6.296,5.364,9.444,8.046c-3.964-0.899-16.892-5.97-20.427-4.465
					c-1.644,0.701-2.069,5.084-4.102,5.084c-8.212,0-30.556,4.491-30.556-4.925c0-0.042-0.148-0.081-0.406-0.116
					c-20.273,8.674-38.976,20.301-55.582,34.336c10.625-1.751,21.785-1.133,23.985-1.133c0.98,0,7.73,17.427,7.794,18.769
					c0.365,7.604-4.821,10.609-8.664,17.837c-6.999,13.161-10.09,30.398-9.307,45.178c0.028,0.534,8.814,8.441,8.814,11.575
					c0,13.12,1.374,13.332,10.387,22.999v-16.092c5.374,14.088,11.87,19.512,16.724,33.296c5.507,15.642,27.272,3.629,34.668,13.931
					c3.257,4.538,9.333,2.457,12.235,6.886l7.875,12.02c4.746,7.244,10.534,4.733,19.016,4.733c8.146,0-7.416,28.147-7.416,30.519
					c0,9.759,13.322,31.976,13.239,35.885c-0.248,11.587,14.222,13.212,22.078,20.348c6.29,5.756,1.806,22.058,1.61,29.289
					c-0.165,6.095,1.147,11.566,3.01,16.824l0,0c0,0.001,0.001,0.002,0.001,0.003c1.715,4.839,3.89,9.5,5.841,14.288
					c0.341,0.838,0.677,1.679,0.999,2.527c0.141,0.37,0.271,0.746,0.408,1.119c0.26,0.709,0.512,1.422,0.752,2.141
					c0.132,0.396,0.258,0.795,0.383,1.194c0.234,0.747,0.451,1.502,0.657,2.263c0.098,0.362,0.201,0.721,0.291,1.086
					c0.279,1.122,0.534,2.255,0.735,3.414c1.031,5.932-1.247,12.328,0.072,18.012c1.356,5.839,6.366,9.473,6.292,15.926
					c-0.114,9.968,27.914,11.84,33.342,11.84c-0.025-0.016-20.46-10.612-20.46-9.341c0-9.46,4.868-8.803,4.87-14.572
					c0.003-6.854-6.22-12.499-2.334-22.197c4.202-10.486,3.726-10.168,15.091-10.168c-0.229-4.821-0.963-9.566-2.203-14.235
					c10.155-15.826,33.778-31.055,40.032-35.325c8.494-5.807,3.738-21.472,7.412-29.82c3.229-7.336,13.02-14.114,13.491-23.14
					c0.024-0.478,0.012-0.925-0.023-1.354c-0.009-0.106-0.028-0.204-0.04-0.307c-0.038-0.326-0.089-0.64-0.16-0.937
					c-0.021-0.085-0.046-0.167-0.069-0.25c-0.087-0.314-0.19-0.613-0.311-0.895c-0.02-0.045-0.039-0.091-0.06-0.135
					c-0.149-0.325-0.317-0.631-0.508-0.915c0,0,0,0,0,0l0,0c-1.963-2.911-6.033-3.725-9.586-3.605
					c-5.019,0.169-5.518-8.225-9.313-8.225c-10.551,0-21.501-1.797-30.641-8.566c-1.514-1.121-3.209-14.585-5.794-17.922
					c-3.705-4.78-15.545,3.613-20.148-2.887c-1.74-2.458-5.852-12.093-8.66-12.093c-3.824,0-24.891-4.097-29.32-0.09
					c0.682-0.616-7.189-3.005-8.308-3.005c0.481,0-27.073,14.273-27.073,6.862c0-9.608,4.685-22.025-6.71-22.025
					c-18.318,0-2.733-4.762-2.733-13.154c0-10.764-17.738,2.954-27.084,2.964c0.248-0.001-10.523-17.662-5.36-17.662
					c3.707,0,4.285-7.551,7.036-10.766c7.234-8.458,19.591-9.345,28.286-7.753c3.521,0.645,16.287,15.453,16.323,18.506
					c-0.009-0.728,5.203-4.059,5.906-5.138c2.517-3.86,1.095-5.525,1.724-9.389c2.11-12.971,2.646-15.537,12.994-23.421
					c7.604-5.793,18.23-12.445,24.197-19.941c4.553-5.72,8.813-8.692,15.427-11.943c-0.675,0.332,6.284,4.24,7.743,4.24
					c5.982,0,7.426-5.055,10.703-9.594h-10.388c11.727-8.967-9.498-13.616,14.007-13.616c11.545,0,12.612,0.158,19.673-8.046
					c-11.229,0-8.499-0.074-8.499-11.51c0-1.904-3.174-8.888-6.204-5.91c-8.284,8.144-7.987-1.491-11.612-6.906
					c-4.688-7.003-9.748,0.205-11.705,4.451c-2.426,5.264-22.355,13.496-22.311,20.372c0.026,4.026-6.555,3.864-6.434-0.626
					c0.182-6.742-23.111-13.181-23.495-15.812c-0.507-3.474,11.529-12.839,21.997-12.839c4.809,0,2.455-5.57,3.936-5.57
					c9.973,0,21.731-3.1,27.184-11.141c-1.362,0-14.165,0.092-14.165-0.066c0-4.571-1.954-7.361,3.287-7.361
					c12.3,0,15.945,9.594,29.449,9.594c-4.827,3.507-9.653,7.014-14.479,10.521c6.778,0,16.929,11.257,22.139,7.764
					c9.62-6.449,3.136-12.343,11.135-13.672c0.857,0.9,2.009,1.765,3.924,2.442c2.5,0.884,11.506,2.493,13.035,4.777
					c1.843,2.753,6.529,19.061,3.087,20.479c-5.589,2.302-21.958,20.037-9.437,24.464c9.677,3.421,12.158-0.893,20.768-6.279
					c8.004-5.008,10.182-3.168,19.193,0.018c0.082,0.029,9.359-0.308,12.834,0.92c7.602,2.688,7.047-2.113,7.845-1.831
					c3.17,1.121,9.283,1.927,13.261,0.188C698.879,363.989,668.573,342.74,634.184,329.828z"/>
				<path style="fill:#C4D8A1;" d="M542.666,483.338c-1.49,1.493-2.979,2.987-4.468,4.48c13.892,0,22.347,4.48,34.671,4.48
					C564.599,479.341,558.116,483.338,542.666,483.338z"/>
				<path style="fill:#C4D8A1;" d="M588.508,494.558c-11.15-0.337-11.668,1.355-18.498,8.986c5.876,0,11.751,0.017,17.627,0.024
					C592.733,503.573,592.025,494.664,588.508,494.558z"/>
				<path style="fill:#C4D8A1;" d="M604.323,506.179C604.323,490.547,588.422,506.179,604.323,506.179L604.323,506.179z"/>
			</g>
		</g>
		<g style="opacity:0.08;">
			<path d="M672.06,348.116c21.958,34.281,34.691,75.039,34.691,118.772c0,121.779-98.721,220.5-220.5,220.5
				c-42.294,0-81.801-11.917-115.363-32.563c39.188,61.179,107.763,101.728,185.809,101.728c121.779,0,220.5-98.721,220.5-220.5
				C777.197,456.568,735.134,386.916,672.06,348.116z"/>
		</g>
	</g>
	<g>
		<path style="fill:#64A195;" d="M398.606,92.152c0.847,1.488,1.527,3.075,2.38,4.537c3.222,5.526,6.386,11.031,9.476,16.648
			l-10.482,6.177c-6.249,3.679-6.393,8.134-0.326,9.903l17.075,4.965c6.068,1.766,15.991,4.656,22.065,6.421l17.075,4.968
			c6.068,1.763,12.172-1.835,13.569-7.999l3.932-17.341c1.39-6.165,3.669-16.248,5.065-22.416l3.932-17.341
			c1.402-6.161-2.574-8.193-8.822-4.514l-10.713,6.314c-3.926-6.693-7.852-13.349-9.367-15.785
			c-3.45-5.532-10.081-9.765-23.104-9.69c-9.668,0.053-35.352,0.2-51.6,0.294c2.673,4.696,5.347,9.392,8.02,14.087
			C390.723,78.306,394.664,85.229,398.606,92.152z"/>
		<path style="fill:#64A195;" d="M319.046,115.254l34.413,20.196c5.109,2.996,11.809,1.309,14.877-3.751
			c0,0,19.41-31.901,21.207-34.854c1.305-2.168,2.801-3.032,4.2-2.711c0.487,0.112,0.881-0.387,0.633-0.822L373.87,57.295
			c-5.623,0.031-10.125,0.06-12.429,0.072c-8.96,0.053-19.203,1.609-26.398,12.536c-5.535,8.406-19.567,30.777-19.567,30.777
			C312.333,105.696,313.936,112.258,319.046,115.254z"/>
		<path style="fill:#64A195;" d="M466.531,217.793c-1.711-0.048-3.418-0.087-5.12-0.114c-6.396-0.103-12.744-0.244-19.149-0.508
			l0.139-12.165c0.086-7.25-3.651-9.679-8.305-5.403l-13.085,12.041c-4.651,4.278-12.26,11.274-16.914,15.557l-13.088,12.039
			c-4.648,4.279-4.73,11.365-0.178,15.75l12.803,12.339c4.556,4.38,12.004,11.549,16.559,15.935l12.803,12.339
			c4.546,4.389,8.342,2.038,8.428-5.213l0.141-12.435c7.759,0.104,15.486,0.19,18.354,0.154c6.519-0.089,13.572-3.572,20.248-14.755
			c4.958-8.3,18.124-30.353,26.453-44.304c-5.402-0.143-10.803-0.285-16.205-0.428C482.464,218.411,474.453,218.013,466.531,217.793
			z"/>
		<path style="fill:#64A195;" d="M518.459,175.117c-4.328-9.086-16.208-32.671-16.208-32.671c-2.665-5.285-9.109-7.31-14.317-4.489
			l-35.09,18.994c-5.208,2.821-7.232,9.427-4.49,14.67c0,0,17.252,33.119,18.848,36.184c1.18,2.238,1.145,3.966,0.146,4.997
			c-0.348,0.359-0.125,0.954,0.376,0.967l41.43,1.094c2.883-4.828,5.189-8.694,6.371-10.672
			C520.116,196.498,524.085,186.928,518.459,175.117z"/>
		<path style="fill:#64A195;" d="M321.211,214.49c0.845-1.488,1.861-2.885,2.682-4.365c3.102-5.594,6.216-11.128,9.464-16.655
			l10.667,5.851c6.356,3.49,10.259,1.336,8.677-4.783l-4.462-17.213c-1.584-6.117-4.174-16.124-5.761-22.246l-4.459-17.215
			c-1.587-6.116-7.799-9.524-13.811-7.572l-16.914,5.485c-6.008,1.957-15.841,5.153-21.855,7.106l-16.914,5.485
			c-6.012,1.944-5.726,6.4,0.63,9.89l10.904,5.979c-3.746,6.796-7.459,13.573-8.777,16.12c-2.991,5.793-3.239,13.656,3.484,24.811
			c4.988,8.282,18.245,30.281,26.632,44.197c2.669-4.698,5.338-9.396,8.007-14.095C313.341,228.343,317.276,221.416,321.211,214.49z
			"/>
		<path style="fill:#64A195;" d="M370.674,220.289c0,0-37.34-0.374-40.797-0.409c-2.53-0.013-4.038-0.857-4.477-2.224
			c-0.153-0.476-0.783-0.559-1.03-0.124l-20.472,36.036c2.901,4.817,5.227,8.671,6.416,10.645
			c4.626,7.673,11.2,15.682,24.269,16.279c10.054,0.46,36.455,1.083,36.455,1.083c5.917,0.138,10.737-4.594,10.701-10.517
			l-0.235-39.9C381.466,225.235,376.591,220.339,370.674,220.289z"/>
	</g>
	<g id="XMLID_189_">
		<g id="XMLID_191_">
			<polygon style="fill:#EACDB0;" points="682.027,339.094 678.737,350.056 669.775,354.577 669.794,356.988 672.749,357.131 
				666.414,363.042 665.552,370.081 672.485,376.588 682.178,377.531 687.768,370.032 689.027,358.895 694.181,344.096 			"/>
		</g>
		<g id="XMLID_190_">
			<path style="fill:#667482;" d="M675.303,343.613c1.146-12.528,2.291-25.056,3.437-37.584c0.74-8.087,1.644-16.179,2.22-24.28
				c0.725-10.184-6.318-10.859-11.178-19.598c-10.936-19.665-22.247-41.309-18.542-63.503c0.37-2.217,0.935-4.504,2.399-6.21
				c2.77-3.228,7.988-3.275,11.73-1.254c3.742,2.021,6.347,5.6,8.79,9.081c13.246,18.875,30.129,39.953,38.799,61.428
				c3.897,9.654-2.443,24.422-4.748,34.588c-4.662,20.567-9.324,41.134-13.986,61.701L675.303,343.613z"/>
		</g>
	</g>
	<g>
		<g>
			<g>
				<g>
					<polygon style="fill:#EBCEB1;" points="150.141,362.557 141.229,367.022 146.89,382.603 157.226,383.801 162.774,376.771 
						156.33,372.207 158.001,371.37 160.518,372.234 161.343,369.696 					"/>
				</g>
				<g>
					<g>
						<path style="fill:#9299A2;" d="M145.246,238.836c-1.617,10.453-4.74,21.134-6.542,30.21
							c-2.46,12.39-4.919,24.779-7.379,37.169l23.573,57.088l-13.307,7.426l-39.393-62.912c1.059-14.452,2.118-28.904,3.177-43.356
							c0.749-10.227,2.357-20.798,2.13-31.046c-0.179-8.074,0.527-16.36,5.816-23.102c1.55-1.975,3.439-3.654,5.318-5.321
							c3.008-2.669,7.35-4.181,11.404-3.972c3.909,0.201,7.569,2.321,10.142,5.271c2.572,2.95,4.136,6.67,5.037,10.48
							C146.813,223.507,146.441,231.109,145.246,238.836z"/>
					</g>
				</g>
			</g>
		</g>
	</g>
	<g>
		<g>
			<path style="fill:#4D4D4D;" d="M157.094,366.427v22.639c0,1.193,0.431,2.359,1.239,3.354l16.958,20.874v4.984
				c0,4.265,4.244,7.723,9.48,7.723h30.432c5.236,0,9.48-3.457,9.48-7.723v-4.984l16.958-20.874
				c0.808-0.995,1.239-2.161,1.239-3.354v-22.639c0-3.356-3.34-6.077-7.459-6.077h-70.866
				C160.434,360.35,157.094,363.071,157.094,366.427z"/>
			<polygon style="opacity:0.15;" points="224.682,414.049 241.64,393.175 158.333,393.175 175.291,414.049 			"/>
		</g>
		<g>
			<path style="fill:#FFEB54;" d="M219.214,353.288c0.124-7.13,0.464-14.257,1.021-21.367c0.11-1.406,0.24-2.853,0.889-4.105
				c2.3-4.442,8.403-7.097,12.487-9.539c7.37-4.407,14.609-7.849,22.603-10.807c0.383-0.142,0.781-0.286,1.189-0.261
				c1.253,0.076,1.839,1.563,2.092,2.792c1.076,5.234,1.43,10.617,1.05,15.947c-0.074,1.041-0.192,2.125-0.759,3.001
				c-0.777,1.199-2.217,1.753-3.562,2.234c-4.533,1.62-9.066,3.241-13.599,4.861c-0.789,0.282-1.63,0.603-2.105,1.294
				c-0.367,0.535-0.453,1.209-0.528,1.854c-0.568,4.862-1.136,9.725-1.704,14.587L219.214,353.288z"/>
			<path style="fill:#FFEB54;" d="M266.154,263.673c-0.004-0.277-0.015-0.575-0.185-0.793c-0.245-0.313-0.705-0.33-1.102-0.305
				c-2.288,0.141-4.55,0.545-6.779,1.072c-15.289,3.617-29.886,9.778-44.445,15.705c-20.051,8.163-40.218,16.524-60.543,23.97
				c-2.66,0.974-6.292,1.945-8.189,4.251c-1.064,0.261-1.583,1.613-1.816,2.748c-1.076,5.234-1.43,10.617-1.05,15.947
				c0.074,1.041,0.192,2.125,0.759,3.001c0.777,1.199,2.217,1.753,3.562,2.234c4.533,1.62,9.066,3.241,13.599,4.861
				c0.789,0.282,1.63,0.603,2.105,1.294c0.367,0.535,0.453,1.209,0.528,1.853c0.568,4.862,1.136,9.725,1.704,14.587l19.073-0.49
				c-0.124-7.13-0.464-14.257-1.021-21.367c-0.11-1.406-0.24-2.853-0.889-4.105c-2.3-4.442-8.403-7.097-12.487-9.539
				c-0.411-0.246-0.821-0.487-1.231-0.727c6.58-2.065,13-4.639,19.485-7.017c17.952-6.59,36.205-11.604,54.431-17.35
				c5.171-1.63,10.324-3.317,15.458-5.059c4.51-1.531,8.427-2.099,8.845-7.57C266.404,275.15,266.234,269.405,266.154,263.673z"/>
			<path style="fill:#FFEB54;" d="M211.065,240.607c11.424-4.909,22.736-10.092,34.447-14.294c1.932-0.693,3.869-1.369,5.814-2.025
				c3.376-1.138,6.771-2.22,10.178-3.261c2.521-0.77,5.1-2.23,7.621-0.646c1.55,0.974,2.552,2.652,3.073,4.408
				c0.521,1.755,0.612,3.604,0.7,5.433c0.095,1.979,0.19,3.957,0.285,5.936c0.307,6.397-5.071,7.302-9.997,9.179
				c-7.9,3.009-15.988,5.492-23.851,8.6c-16.882,6.676-33.917,13.005-50.714,19.887c-14.9,6.104-29.597,12.68-44.344,19.138
				c-2.156,0.946-4.495,1.914-6.794,1.408c-2.142-0.471-3.843-2.18-4.844-4.131c-1.928-3.758-4.236-9.683-3.173-13.898
				c1.371-5.44,8.885-7.338,13.379-9.077c17.867-6.916,35.744-13.806,53.631-20.668C201.385,244.71,206.235,242.683,211.065,240.607
				z"/>
			<path style="fill:#FFEB54;" d="M203.103,203.353c9.161-3.923,18.262-8.127,27.577-11.321c1.536-0.527,3.076-1.036,4.619-1.525
				c2.678-0.848,5.367-1.639,8.06-2.387c1.993-0.554,4.093-1.79,5.871,0c1.093,1.1,1.702,2.856,1.939,4.647
				c0.236,1.791,0.136,3.64,0.036,5.468c-0.109,1.978-0.218,3.956-0.327,5.933c-0.352,6.395-4.536,6.841-8.465,8.293
				c-6.299,2.328-12.695,4.117-18.975,6.547c-13.485,5.221-27.055,10.083-40.494,15.515c-11.921,4.818-23.731,10.123-35.568,15.308
				c-1.73,0.76-3.603,1.525-5.31,0.828c-1.59-0.65-2.73-2.495-3.315-4.521c-1.126-3.904-2.342-9.997-1.146-14.105
				c1.544-5.3,7.448-6.554,11.034-7.907c14.258-5.376,28.521-10.726,42.789-16.047C195.345,206.62,199.229,205.012,203.103,203.353z
				"/>
		</g>
	</g>
	<g>
		<path style="fill:#D1E0DA;" d="M754.985,296.551c8.58,7.098,17.159,14.197,25.739,21.295c0.896,0.741,1.868,1.515,3.026,1.618
			c2.027,0.181,3.112-2.141,4.744-3.356C822.197,291,841.382,255.098,867.197,228c4.563-4.79,25.807-26.474,9-27
			c-8.965-0.281-40.642,24.88-47.84,30.706C821.936,236.903,755.018,296.578,754.985,296.551z"/>
		<g>
			<g>
				<g>
					<g>
						<polygon style="fill:#EBCEB1;" points="1027.749,308.487 1027.521,319.423 1045.545,321.906 1051.999,312.486 1048.016,303.5 
							1040.286,307.419 1040.329,305.368 1042.457,303.367 1040.415,301.267 						"/>
					</g>
					<g>
						<g>
							<path style="fill:#D1E0DA;" d="M930.956,247.781c-0.253-3.06-0.491-6.119-0.718-9.176c-0.326-4.39-0.547-9.09,1.689-12.883
								c2.701-4.583,8.193-6.568,13.25-8.218c4.507-1.47,9.88-2.81,13.633,0.086c2.494,1.925,3.468,5.184,4.273,8.231
								c3.688,13.953,6.822,28.053,9.394,42.255c2.026,11.188,0.215,27.555,10.405,31.659c13.079,5.267,33.75,3.172,48.026,4.515
								l0.395,16.72c-22.207,1.648-44.446,3.055-66.634,4.945c-18.316,1.56-22.806,1.165-26.315-18.543
								C934.852,287.708,932.602,267.716,930.956,247.781z"/>
						</g>
					</g>
				</g>
			</g>
		</g>
		<g>
			<g>
				<g>
					<g>
						<g>
							<polygon style="fill:#EBCEB1;" points="939.665,413.513 918.633,564.814 926.101,674.116 910.784,679.458 897.073,578.459 
								867.812,393.898 							"/>
						</g>
					</g>
				</g>
				<g>
					<g>
						<polygon style="fill:#514943;" points="910.816,682.54 909.125,693.863 912.966,715.386 925.614,714.188 927.995,682.309 
							926.133,677.197 						"/>
					</g>
				</g>
			</g>
			<g>
				<g>
					<g>
						<polygon style="fill:#EBCEB1;" points="815.734,409.014 822.496,537.341 851.095,716.74 866.595,716.532 859.704,550.196 
							879.81,396.853 						"/>
					</g>
				</g>
				<g>
					<g>
						<polygon style="fill:#514943;" points="851.35,713.672 831.539,728.196 834.011,739.048 870.283,730.401 867.333,714.725 
													"/>
					</g>
				</g>
			</g>
			<g>
				<g>
					<polygon style="fill:#C7B299;" points="812.318,428.248 812.964,577.203 831.19,677.637 872.716,670.915 871.508,554.842 
						880.127,427.336 875.857,408.028 815.795,414.845 					"/>
				</g>
			</g>
			<g>
				<g>
					<polygon style="fill:#C7B299;" points="885.999,557.034 898.854,662.677 934.966,657.055 926.685,556.487 940.084,427.89 
						932.218,393.066 871.541,403.281 					"/>
				</g>
			</g>
			<g>
				<g>
					<g>
						<path style="fill:#EACDB0;" d="M958.008,144.33c-2.766-26.221-36.107-42.308-50.339-15.581
							c-4.277,8.031-7.688,16.794-7.88,25.905c-0.192,9.112,3.279,18.64,10.54,23.951c0.042,0.03,0.085,0.054,0.126,0.084
							c-0.797,2.205-1.595,4.411-2.391,6.616c-0.172,0.473-0.343,1-0.16,1.467c0.208,0.532,0.792,0.785,1.32,0.985
							c2.579,0.977,5.159,1.954,7.739,2.932c1.279,0.484,2.613,0.977,3.973,0.836c2.978-0.309,4.859-3.455,5.613-6.401
							c0.18-0.705,0.326-1.424,0.469-2.146C943.963,180.87,959.815,161.471,958.008,144.33z"/>
					</g>
				</g>
				<g>
					<g>
						<g>
							<path style="fill:#333333;" d="M906.874,136.578c-4.947,5.788-5.917,13.65-6.017,21.011
								c-0.098,7.197-1.934,13.966-1.369,21.195c-0.916,0.976-2.478-0.003-3.4-0.964c-5.403-5.636-10.728-11.348-15.975-17.135
								c-0.528-0.582-1.069-1.189-1.315-1.941c-0.312-0.953-0.105-1.994,0.119-2.975c4.429-19.367,14.278-32.496,27.619-46.264
								c6.478-6.685,21.983-12.794,28.685-2.601c1.526,2.321,1.762,5.261,1.821,8.058c0.035,1.67,0.014,3.389-0.602,4.941
								c-2.456,6.189-8.405,4.911-13.422,6.243C916.832,127.788,911.05,131.692,906.874,136.578z"/>
						</g>
					</g>
					<g>
						<g>
							<path style="fill:#333333;" d="M949.537,156.334c-0.866,5.643-3.168,11.849-5.679,16.925c-0.87,1.758-5.07,5.512-5.373,6.746
								c-0.876,3.575,5.27,13.233,6.725,16.699c12.651-4.68,25.301-9.36,37.952-14.04c0.969-0.358,1.986-0.751,2.642-1.561
								c0.595-0.736,0.803-1.708,0.98-2.641c3.486-18.347,1.284-35.659-3.185-53.428c-4.466-17.76-18.146-33.737-36.89-35.428
								c-15.145-1.366-27.337,8.088-24.227,24.386c2.348,12.304,16.485,17.006,23.162,26.192
								C949.836,145.951,950.492,151.139,949.537,156.334z"/>
						</g>
					</g>
				</g>
			</g>
			<g>
				<g>
					<path style="fill:#D1E0DA;" d="M941.568,193.558c0.289,0.149,0.576,0.299,0.86,0.451c13.615,7.279,21.858,32.815,26.539,47.8
						c12.082,38.68,14.636,77.634,10.977,118.088c-1.97,21.782-4.919,43.469-8.314,65.074c-0.938,5.969-12.96,58.918-10.362,60.571
						c-26.655-16.96-53.875-33.255-83.051-44.818c-29.176-11.563-60.693-1.328-91.946,1.411
						c17.665-66.889,39.783-151.375,67.247-214.606c3.285-7.563,5.867-15.749,10.216-22.749c5.009-8.063,11.245-9.802,19.357-13.874
						c2.779-1.395,5.578-2.798,8.547-3.632C907.285,182.879,927.192,186.159,941.568,193.558z"/>
				</g>
			</g>
		</g>
		<g>
			<path style="fill:#726562;" d="M825.869,305.592c0,0,12.621,36.282-7.51,114.504l-20.723-4.603c0,0,22.019-67.344,16.661-109.419
				L825.869,305.592z"/>
			<g>
				<path style="fill:#64A195;" d="M749.025,165c0,0,67.2,28.497,86.334,66.749c19.134,38.253-13.064,79.73-13.064,79.73
					s-52.501,0.889-71.635-37.363C731.525,235.863,749.025,165,749.025,165z"/>
				<path style="fill:#698178;" d="M822.294,311.48c0,0-3.027,0.045-7.863-0.401l-38.2-91.686l50.457,85.555
					C824.146,309.085,822.294,311.48,822.294,311.48z"/>
			</g>
			<g>
				<path style="fill:#64A195;" d="M956.466,280.272c0,0-25.659,59.875-59.863,76.822c-34.203,16.947-71.11-11.929-71.11-11.929
					s-0.616-46.857,33.588-63.803C893.284,264.415,956.466,280.272,956.466,280.272z"/>
				<path style="fill:#698178;" d="M825.493,345.165c0,0-0.03-2.702,0.384-7.016l81.954-33.78l-76.524,44.74
					C827.624,346.826,825.493,345.165,825.493,345.165z"/>
			</g>
			<path style="fill:#539689;" d="M822.294,311.48c0,0-72.98-30.568-80.335-95.857C741.959,215.622,727.724,312.021,822.294,311.48z
				"/>
		</g>
		<g>
			<path style="fill:#D1E0DA;" d="M759.89,317.829c-9.482-5.584-13.738-17.706-9.895-28.187c1.182-3.226,3.952-6.768,7.462-6.452
				c1.466,0.132,2.705,0.94,3.867,1.732c6.968,4.752,31.661,18.485,29.33,28.155C787.938,324.341,766.567,321.761,759.89,317.829z"
				/>
			<path style="fill:#EBCEB1;" d="M760.429,287.869c-4.273,7.372-0.197,16.159,6.763,20.119c5.825,3.314,13.6,1.52,17.439-3.977
				c2.823-4.042,2.339-9.163-1.17-12.613c-5.348-5.258-10.094-2.314-16.014-0.078c-0.397-0.976-0.41-2.057-0.523-3.105
				c-0.112-1.048-0.362-2.149-1.107-2.895C763.571,283.067,761.428,286.145,760.429,287.869z"/>
		</g>
		<g>
			<g>
				<path style="fill:#A3CEDF;" d="M1029.434,109.694c0,0-62.762,69.529-62.762,127.528c0,58,43.415,71.779,62.762,71.779
					c19.348,0,62.762-13.779,62.762-71.779C1092.197,179.222,1029.434,109.694,1029.434,109.694z"/>
				<path style="opacity:0.47;fill:#FFFFFF;" d="M989.366,260.082c-0.008-0.042-0.017-0.083-0.026-0.125
					c-0.595-2.808-1.466-5.213-1.532-8.121c-0.096-4.228,0.008-8.46,0.281-12.681c0.562-8.698,1.837-17.342,3.615-25.872
					c3.641-17.474,9.35-34.492,16.219-50.949c3.089-7.4,6.427-14.696,9.981-21.884c1.678-3.393,3.404-6.763,5.176-10.107
					c0.459-0.866,5.497-9.242,5.215-9.527c-0.106-0.107-0.166-0.167-0.166-0.167s-56.554,69.711-53.625,125.217
					c0.189,3.586,0.552,7.164,1.117,10.711c0.271,1.7,0.589,3.393,0.957,5.076c0.316,1.447,0.112,2.901,0.881,4.216
					c1.274,2.18,3.676,3.658,6.196,3.811c2.223,0.136,4.189-0.555,5.034-2.656C989.573,264.831,989.832,262.405,989.366,260.082z"/>
			</g>
			<path style="opacity:0.47;fill:#FFFFFF;" d="M997.47,275.656c-1.064-1.044-2.589-1.692-4.085-1.692
				c-1.13,0-2.42,0.414-3.397,1.115c-2.266,1.308-3.396,3.839-2.786,6.539c0.89,3.939,5.66,5.517,8.964,3.59
				C999.547,283.235,1000.332,278.465,997.47,275.656z"/>
		</g>
	</g>
</g>
</svg>
